<?xml version="1.0" standalone="no"?>
<!DOCTYPE svg PUBLIC "-//W3C//DTD SVG 20010904//EN"
 "http://www.w3.org/TR/2001/REC-SVG-20010904/DTD/svg10.dtd">
<svg version="1.0" xmlns="http://www.w3.org/2000/svg"
 width="174.000000pt" height="174.000000pt" viewBox="0 0 174.000000 174.000000"
 preserveAspectRatio="xMidYMid meet">
<metadata>
Created by potrace 1.11, written by Peter Selinger 2001-2013
</metadata>
<g transform="translate(0.000000,174.000000) scale(0.100000,-0.100000)"
fill="#000000" stroke="none">
<path d="M1649 1630 c-2 -16 -2 -27 -13 -243 -4 -73 -9 -150 -11 -172 -2 -22
-7 -76 -10 -120 -14 -156 -22 -223 -46 -350 -46 -252 -100 -333 -172 -258 -40
42 -59 94 -75 198 -9 63 -8 530 1 610 4 33 10 83 13 110 2 28 7 64 11 80 l5
30 -28 -25 c-67 -60 -102 -113 -109 -166 -14 -103 -10 -300 9 -454 15 -115 44
-218 92 -330 33 -75 37 -95 38 -170 1 -95 -17 -148 -76 -222 -31 -39 -31 -40
-7 -33 113 34 231 133 275 231 32 72 79 274 99 426 37 286 43 333 60 548 4 47
9 92 10 101 2 9 6 62 10 117 l6 100 -40 4 c-31 3 -41 0 -42 -12z"/>
<path d="M79 1204 c-9 -3 -31 -31 -48 -63 -24 -45 -29 -65 -25 -93 6 -34 9
-37 78 -57 39 -12 78 -21 86 -21 8 0 37 -15 65 -34 27 -18 73 -39 100 -45 28
-7 90 -31 138 -54 l89 -43 -59 -18 c-32 -10 -87 -37 -123 -61 -86 -56 -176
-101 -222 -109 -75 -14 -124 -43 -139 -83 -21 -55 -11 -114 23 -132 24 -14 33
-13 110 13 45 16 88 32 94 37 6 5 60 34 120 65 60 31 116 62 124 69 17 15 82
42 220 90 107 38 154 51 220 60 25 4 48 12 52 18 4 7 8 35 8 63 0 52 -7 63
-56 91 -23 13 -80 29 -133 38 -19 3 -46 12 -60 20 -14 7 -48 21 -76 31 -27 9
-66 28 -85 41 -19 12 -42 23 -51 23 -36 0 -117 35 -159 69 -64 52 -234 101
-291 85z"/>
</g>
</svg>
